<svg width="16" height="16" viewBox="0 0 16 16" fill="none" xmlns="http://www.w3.org/2000/svg">
<path d="M1.33331 14.6666C1.33331 11.7211 3.72113 9.33329 6.66665 9.33329C9.61218 9.33329 12 11.7211 12 14.6666H10.6666C10.6666 12.4575 8.87578 10.6666 6.66665 10.6666C4.45751 10.6666 2.66665 12.4575 2.66665 14.6666H1.33331ZM6.66665 8.66663C4.45665 8.66663 2.66665 6.87663 2.66665 4.66663C2.66665 2.45663 4.45665 0.666626 6.66665 0.666626C8.87665 0.666626 10.6666 2.45663 10.6666 4.66663C10.6666 6.87663 8.87665 8.66663 6.66665 8.66663ZM6.66665 7.33329C8.13998 7.33329 9.33331 6.13996 9.33331 4.66663C9.33331 3.19329 8.13998 1.99996 6.66665 1.99996C5.19331 1.99996 3.99998 3.19329 3.99998 4.66663C3.99998 6.13996 5.19331 7.33329 6.66665 7.33329ZM12.1891 9.80183C14.0429 10.6374 15.3333 12.5013 15.3333 14.6666H14C14 13.0426 13.0322 11.6447 11.6418 11.018L12.1891 9.80183ZM11.7308 2.27543C13.0629 2.82465 14 4.1357 14 5.66663C14 7.58009 12.5361 9.15009 10.6666 9.31836V7.97636C11.7978 7.81476 12.6666 6.84263 12.6666 5.66663C12.6666 4.74619 12.1344 3.95065 11.3606 3.57086L11.7308 2.27543Z" fill="#ffffff"/>
</svg>
