<svg width="22" height="22" viewBox="0 0 22 22" fill="none" xmlns="http://www.w3.org/2000/svg">
<g filter="url(#filter0_d_425_6467)">
<path d="M18.9381 11C18.4869 14.6187 15.6187 17.4869 12 17.9381V15H10V17.9381C6.38128 17.4869 3.51314 14.6187 3.06189 11H6V9H3.06189C3.51314 5.38128 6.38128 2.51314 10 2.06189V5H12V2.06189C15.6187 2.51314 18.4869 5.38128 18.9381 9H16V11H18.9381ZM1 10C1 15.5228 5.47715 20 11 20C16.5228 20 21 15.5228 21 10C21 4.47715 16.5228 0 11 0C5.47715 0 1 4.47715 1 10ZM11 13C12.6569 13 14 11.6569 14 10C14 8.3431 12.6569 7 11 7C9.3431 7 8 8.3431 8 10C8 11.6569 9.3431 13 11 13Z" fill="url(#paint0_linear_425_6467)" shape-rendering="crispEdges"/>
</g>
<defs>
<filter id="filter0_d_425_6467" x="0" y="0" width="22" height="22" filterUnits="userSpaceOnUse" color-interpolation-filters="sRGB">
<feFlood flood-opacity="0" result="BackgroundImageFix"/>
<feColorMatrix in="SourceAlpha" type="matrix" values="0 0 0 0 0 0 0 0 0 0 0 0 0 0 0 0 0 0 127 0" result="hardAlpha"/>
<feOffset dy="1"/>
<feGaussianBlur stdDeviation="0.5"/>
<feComposite in2="hardAlpha" operator="out"/>
<feColorMatrix type="matrix" values="0 0 0 0 0 0 0 0 0 0 0 0 0 0 0 0 0 0 0.1 0"/>
<feBlend mode="normal" in2="BackgroundImageFix" result="effect1_dropShadow_425_6467"/>
<feBlend mode="normal" in="SourceGraphic" in2="effect1_dropShadow_425_6467" result="shape"/>
</filter>
<linearGradient id="paint0_linear_425_6467" x1="11" y1="0" x2="11" y2="20" gradientUnits="userSpaceOnUse">
<stop stop-color="white"/>
<stop offset="1" stop-color="white" stop-opacity="0.5"/>
</linearGradient>
</defs>
</svg>
