<svg width="16" height="16" viewBox="0 0 16 16" fill="none" xmlns="http://www.w3.org/2000/svg">
<path d="M4.2288 9.81871L2.34318 11.7044L4.7002 14.0614L13.6569 5.10468L11.2998 2.74766L9.88565 4.16188L10.8284 5.10468L9.88565 6.0475L8.94285 5.10468L7.52865 6.5189L8.94285 7.93311L8.00005 8.87591L6.58582 7.46171L5.17161 8.87591L6.11442 9.81871L5.17161 10.7615L4.2288 9.81871ZM11.7712 1.33345L15.0711 4.63328C15.3314 4.89363 15.3314 5.31573 15.0711 5.57609L5.17161 15.4756C4.91126 15.7359 4.48915 15.7359 4.2288 15.4756L0.928969 12.1758C0.668615 11.9154 0.668615 11.4933 0.928969 11.233L10.8284 1.33345C11.0888 1.0731 11.5109 1.0731 11.7712 1.33345Z" fill="#ffffff"/>
</svg>
