<svg width="18" height="22" viewBox="0 0 18 22" fill="none" xmlns="http://www.w3.org/2000/svg">
<g filter="url(#filter0_d_444_10777)">
<path d="M4.38938 14.5386C2.33894 13.0901 1 10.7014 1 7.99996C1 3.58168 4.58172 -4.19617e-05 9 -4.19617e-05C13.4183 -4.19617e-05 17 3.58168 17 7.99996C17 10.7014 15.6611 13.0901 13.6106 14.5386L15.6936 19.2996C15.8043 19.5526 15.6889 19.8474 15.4359 19.9581C15.3727 19.9857 15.3045 20 15.2355 20H2.76451C2.48837 20 2.26451 19.7761 2.26451 19.5C2.26451 19.431 2.27878 19.3628 2.30643 19.2996L4.38938 14.5386ZM11.1246 13.846L12.4567 12.905C14.041 11.7858 15 9.97516 15 7.99996C15 4.68625 12.3137 1.99996 9 1.99996C5.68629 1.99996 3 4.68625 3 7.99996C3 9.97516 3.95901 11.7858 5.54335 12.905L6.87539 13.846L5.05803 18H12.942L11.1246 13.846ZM5.11851 8.97036L7.0593 8.48516C7.2761 9.35526 8.0628 9.99996 9 9.99996C9.9372 9.99996 10.7239 9.35526 10.9407 8.48516L12.8815 8.97036C12.4478 10.7106 10.8745 12 9 12C7.1255 12 5.55217 10.7106 5.11851 8.97036Z" fill="url(#paint0_linear_444_10777)"/>
</g>
<defs>
<filter id="filter0_d_444_10777" x="0" y="-4.19617e-05" width="18" height="22" filterUnits="userSpaceOnUse" color-interpolation-filters="sRGB">
<feFlood flood-opacity="0" result="BackgroundImageFix"/>
<feColorMatrix in="SourceAlpha" type="matrix" values="0 0 0 0 0 0 0 0 0 0 0 0 0 0 0 0 0 0 127 0" result="hardAlpha"/>
<feOffset dy="1"/>
<feGaussianBlur stdDeviation="0.5"/>
<feComposite in2="hardAlpha" operator="out"/>
<feColorMatrix type="matrix" values="0 0 0 0 0 0 0 0 0 0 0 0 0 0 0 0 0 0 0.1 0"/>
<feBlend mode="normal" in2="BackgroundImageFix" result="effect1_dropShadow_444_10777"/>
<feBlend mode="normal" in="SourceGraphic" in2="effect1_dropShadow_444_10777" result="shape"/>
</filter>
<linearGradient id="paint0_linear_444_10777" x1="9" y1="-4.19617e-05" x2="9" y2="20" gradientUnits="userSpaceOnUse">
<stop stop-color="white"/>
<stop offset="1" stop-color="white" stop-opacity="0.8"/>
</linearGradient>
</defs>
</svg>
