<svg width="16" height="16" viewBox="0 0 16 16" fill="none" xmlns="http://www.w3.org/2000/svg">
<path d="M10.6666 10.6667C11.7712 10.6667 12.6666 11.5621 12.6666 12.6667C12.6666 13.7713 11.7712 14.6667 10.6666 14.6667C9.56205 14.6667 8.66665 13.7713 8.66665 12.6667C8.66665 11.5621 9.56205 10.6667 10.6666 10.6667ZM3.99998 8.00004C5.47274 8.00004 6.66665 9.19397 6.66665 10.6667C6.66665 12.1394 5.47274 13.3334 3.99998 13.3334C2.52722 13.3334 1.33331 12.1394 1.33331 10.6667C1.33331 9.19397 2.52722 8.00004 3.99998 8.00004ZM10.6666 12C10.2984 12 9.99998 12.2985 9.99998 12.6667C9.99998 13.0349 10.2984 13.3334 10.6666 13.3334C11.0348 13.3334 11.3333 13.0349 11.3333 12.6667C11.3333 12.2985 11.0348 12 10.6666 12ZM3.99998 9.33337C3.2636 9.33337 2.66665 9.93031 2.66665 10.6667C2.66665 11.4031 3.2636 12 3.99998 12C4.73636 12 5.33331 11.4031 5.33331 10.6667C5.33331 9.93031 4.73636 9.33337 3.99998 9.33337ZM9.66665 1.33337C11.6917 1.33337 13.3333 2.97499 13.3333 5.00004C13.3333 7.02511 11.6917 8.66671 9.66665 8.66671C7.64158 8.66671 5.99998 7.02511 5.99998 5.00004C5.99998 2.97499 7.64158 1.33337 9.66665 1.33337ZM9.66665 2.66671C8.37798 2.66671 7.33331 3.71137 7.33331 5.00004C7.33331 6.28871 8.37798 7.33337 9.66665 7.33337C10.9553 7.33337 12 6.28871 12 5.00004C12 3.71137 10.9553 2.66671 9.66665 2.66671Z" fill="#FFFFFF"/>
</svg>
