<svg width="16" height="16" viewBox="0 0 16 16" fill="none" xmlns="http://www.w3.org/2000/svg">
<g clip-path="url(#clip0_432_7074)">
<path d="M8.00002 9.33329C8.73639 9.33329 9.33335 8.73633 9.33335 7.99996C9.33335 7.26359 8.73639 6.66663 8.00002 6.66663C7.26365 6.66663 6.66669 7.26359 6.66669 7.99996C6.66669 8.73633 7.26365 9.33329 8.00002 9.33329Z" stroke="#FF9600" stroke-width="1.5" stroke-linecap="round" stroke-linejoin="round"/>
<path d="M5.78812 4.66663C5.56406 4.81559 5.35586 4.98656 5.16666 5.17646C4.96802 5.37576 4.79029 5.59589 4.63702 5.83329" stroke="#FF9600" stroke-width="1.5" stroke-linecap="round" stroke-linejoin="round"/>
<path d="M4.06583 8.72674C4.0226 8.49107 4 8.24824 4 8.00007C4 7.75194 4.0226 7.50907 4.06583 7.27344" stroke="#FF9600" stroke-width="1.5" stroke-linecap="round" stroke-linejoin="round"/>
<path d="M5.78812 11.3333C5.56406 11.1843 5.35586 11.0134 5.16666 10.8235C4.96802 10.6242 4.79029 10.404 4.63702 10.1666" stroke="#FF9600" stroke-width="1.5" stroke-linecap="round" stroke-linejoin="round"/>
<path d="M8.78661 11.9227C8.53228 11.9734 8.26925 12 8.00001 12C7.73075 12 7.46771 11.9734 7.21338 11.9227" stroke="#FF9600" stroke-width="1.5" stroke-linecap="round" stroke-linejoin="round"/>
<path d="M10.2119 11.3333C10.436 11.1843 10.6442 11.0134 10.8334 10.8235C11.032 10.6242 11.2097 10.404 11.363 10.1666" stroke="#FF9600" stroke-width="1.5" stroke-linecap="round" stroke-linejoin="round"/>
<path d="M11.9342 8.72674C11.9775 8.49107 12.0001 8.24824 12.0001 8.00007C12.0001 7.75194 11.9775 7.50907 11.9342 7.27344" stroke="#FF9600" stroke-width="1.5" stroke-linecap="round" stroke-linejoin="round"/>
<path d="M10.2119 4.66663C10.436 4.81559 10.6442 4.98656 10.8334 5.17646C11.032 5.37576 11.2097 5.59589 11.363 5.83329" stroke="#FF9600" stroke-width="1.5" stroke-linecap="round" stroke-linejoin="round"/>
<path d="M7.21338 4.07733C7.46771 4.0266 7.73075 4 7.99998 4C8.26925 4 8.53228 4.0266 8.78661 4.07733" stroke="#FF9600" stroke-width="1.5" stroke-linecap="round" stroke-linejoin="round"/>
<path d="M14.6666 8.00004C14.6666 7.77504 14.6555 7.55264 14.6337 7.33337C14.6113 7.10764 14.5776 6.88524 14.5333 6.66671M1.33331 8.00004C1.33331 7.77504 1.34446 7.55264 1.36623 7.33337C1.38864 7.10764 1.42231 6.88524 1.46667 6.66671M12.882 12.54C12.7322 12.7009 12.5746 12.8545 12.4097 13C12.2621 13.1303 12.1087 13.2541 11.9499 13.3711M3.11799 12.54C3.26775 12.7009 3.42538 12.8545 3.59028 13C3.73785 13.1303 3.89128 13.2541 4.05005 13.3711M5.23745 1.93089C5.01895 2.03051 4.80675 2.14159 4.60165 2.26335C4.41148 2.37625 4.22741 2.49833 4.05005 2.62898M10.7625 1.93089C10.981 2.03051 11.1932 2.14159 11.3983 2.26335C11.5885 2.37625 11.7725 2.49833 11.9499 2.62898M8.74881 1.37496C8.50301 1.34748 8.25315 1.33337 7.99998 1.33337C7.74681 1.33337 7.49695 1.34748 7.25115 1.37496M8.74881 14.6251C8.99965 14.5971 9.24628 14.5551 9.48791 14.5C9.71895 14.4474 9.94545 14.3827 10.1666 14.3067M7.25115 14.6251C7.00031 14.5971 6.75368 14.5551 6.51205 14.5C6.28101 14.4474 6.05451 14.3827 5.83331 14.3067M2.7183 3.93154C2.59207 4.09517 2.47327 4.26484 2.36242 4.44001C2.26252 4.59787 2.16908 4.76021 2.08245 4.92667M13.2817 3.93154C13.4079 4.09517 13.5267 4.26484 13.6375 4.44001C13.7374 4.59787 13.8309 4.76021 13.9175 4.92667M2.08245 11.0734C1.98557 10.8873 1.89722 10.696 1.81791 10.5C1.74515 10.3203 1.68 10.1366 1.62286 9.94947M13.9175 11.0734C14.0144 10.8873 14.1027 10.696 14.182 10.5C14.2548 10.3203 14.32 10.1366 14.3771 9.94947" stroke="#FF9600" stroke-width="1.5" stroke-linecap="round" stroke-linejoin="round"/>
</g>
<defs>
<clipPath id="clip0_432_7074">
<rect width="16" height="16" fill="white"/>
</clipPath>
</defs>
</svg>
