<svg width="16" height="16" viewBox="0 0 16 16" fill="none" xmlns="http://www.w3.org/2000/svg">
<g clip-path="url(#clip0_432_7056)">
<path d="M13.6666 5.33337H5.99998C5.63179 5.33337 5.33331 5.63185 5.33331 6.00004V13.6667C5.33331 14.0349 5.63179 14.3334 5.99998 14.3334H13.6666C14.0348 14.3334 14.3333 14.0349 14.3333 13.6667V6.00004C14.3333 5.63185 14.0348 5.33337 13.6666 5.33337Z" stroke="#FF9600" stroke-width="1.5" stroke-linecap="round" stroke-linejoin="round"/>
<path d="M10 1.66663H2.33335C1.96516 1.66663 1.66669 1.9651 1.66669 2.33329V9.99996C1.66669 10.3681 1.96516 10.6666 2.33335 10.6666H10C10.3682 10.6666 10.6667 10.3681 10.6667 9.99996V2.33329C10.6667 1.9651 10.3682 1.66663 10 1.66663Z" stroke="#FF9600" stroke-width="1.5" stroke-linecap="round" stroke-linejoin="round"/>
<path d="M8.99998 5.33337L5.33331 9.00004" stroke="#FF9600" stroke-width="1.5" stroke-linecap="round" stroke-linejoin="round"/>
<path d="M10.6667 7L7 10.6667" stroke="#FF9600" stroke-width="1.5" stroke-linecap="round" stroke-linejoin="round"/>
</g>
<defs>
<clipPath id="clip0_432_7056">
<rect width="16" height="16" fill="white"/>
</clipPath>
</defs>
</svg>
